<?xml version="1.0" standalone="no"?>
<!DOCTYPE svg PUBLIC "-//W3C//DTD SVG 20010904//EN"
 "http://www.w3.org/TR/2001/REC-SVG-20010904/DTD/svg10.dtd">
<svg version="1.0" xmlns="http://www.w3.org/2000/svg"
 width="354.000000pt" height="354.000000pt" viewBox="0 0 354.000000 354.000000"
 preserveAspectRatio="xMidYMid meet">

<g transform="translate(0.000000,354.000000) scale(0.100000,-0.100000)"
fill="#000000" stroke="none">
<path d="M0 1770 l0 -1770 1770 0 1770 0 0 1770 0 1770 -1770 0 -1770 0 0
-1770z m1839 1386 c214 -129 490 -235 771 -296 52 -11 106 -23 119 -26 l23 -5
-6 -282 c-10 -413 -25 -536 -92 -736 -91 -273 -266 -525 -505 -726 -76 -64
-244 -180 -350 -243 l-36 -22 -102 63 c-395 242 -656 553 -784 938 -67 200
-87 371 -87 751 l0 257 58 11 c197 39 367 89 532 157 91 38 269 126 335 167
22 13 46 25 54 25 7 1 39 -14 70 -33z m-539 -117 c-76 -34 -299 -106 -415
-133 -168 -40 -151 -15 -153 -217 -3 -240 14 -523 37 -654 35 -192 113 -404
201 -547 17 -27 26 -47 21 -44 -6 4 -23 29 -38 56 -15 27 -31 46 -35 44 -8 -5
-12 10 -9 35 2 8 -2 10 -10 5 -8 -4 -10 -3 -5 4 4 7 2 12 -5 12 -7 0 -9 3 -6
7 4 3 0 14 -8 23 -23 26 -91 224 -114 335 -34 161 -42 262 -48 601 l-6 321
144 36 c80 20 198 53 264 73 220 68 265 78 185 43z m1519 -324 c0 -49 -4 -99
-9 -110 -5 -13 -9 29 -9 110 0 81 4 123 9 110 5 -11 9 -60 9 -110z m-45 -687
c-4 -35 -11 -70 -16 -78 -6 -10 -7 -4 -4 20 16 105 19 120 23 120 2 0 1 -28
-3 -62z m-27 -120 c-3 -8 -6 -5 -6 6 -1 11 2 17 5 13 3 -3 4 -12 1 -19z m-10
-40 c-3 -8 -6 -5 -6 6 -1 11 2 17 5 13 3 -3 4 -12 1 -19z m-17 -55 c-11 -17
-11 -17 -6 0 3 10 6 24 7 30 0 9 2 9 5 0 3 -7 0 -20 -6 -30z m-1372 -1185 c-2
-15 -10 -23 -23 -23 -13 0 -21 8 -23 23 -3 18 1 22 23 22 22 0 26 -4 23 -22z
m-480 -106 c23 -59 42 -111 42 -115 0 -4 -13 -7 -29 -7 -20 0 -30 6 -34 20 -4
17 -14 20 -60 20 -47 0 -57 -3 -62 -20 -4 -14 -15 -20 -36 -20 l-29 0 19 48
c74 186 72 182 110 182 l36 0 43 -108z m354 81 c2 -20 9 -29 26 -31 32 -5 30
-42 -3 -42 -22 0 -25 -4 -25 -38 0 -42 14 -62 43 -62 12 0 17 -6 15 -17 -4
-24 -53 -29 -84 -8 -20 13 -24 23 -24 69 0 39 -4 55 -15 60 -8 3 -15 12 -15
21 0 8 7 15 15 15 10 0 15 10 15 30 0 25 4 30 24 30 19 0 25 -6 28 -27z m228
-68 l0 -95 60 0 c53 0 60 -2 60 -20 0 -18 -7 -20 -85 -20 l-85 0 0 115 0 115
25 0 c25 0 25 0 25 -95z m290 70 c0 -22 -4 -25 -35 -25 l-35 0 0 -90 0 -90
-30 0 -30 0 0 89 0 90 -32 3 c-25 2 -34 8 -36 26 -3 22 -1 22 97 22 l101 0 0
-25z m210 0 c0 -24 -3 -25 -60 -25 -53 0 -60 -2 -60 -20 0 -18 7 -20 55 -20
48 0 55 -3 55 -19 0 -17 -8 -20 -52 -23 -49 -3 -53 -5 -56 -30 -3 -28 -3 -28
57 -28 54 0 61 -2 61 -20 0 -18 -7 -20 -85 -20 l-85 0 0 115 0 115 85 0 c84 0
85 0 85 -25z m388 9 c24 -16 30 -62 11 -81 -9 -9 -8 -16 5 -28 9 -9 16 -29 16
-45 0 -45 -31 -60 -122 -60 l-78 0 0 115 0 115 73 0 c49 0 80 -5 95 -16z m268
-3 c62 -38 69 -138 13 -185 -59 -50 -145 -43 -195 17 -23 27 -26 38 -21 81 6
71 46 106 120 106 34 0 63 -7 83 -19z m262 -3 c-2 -18 -11 -24 -35 -26 l-33
-3 0 -90 0 -89 -30 0 -30 0 0 90 0 90 -35 0 c-31 0 -35 3 -35 25 l0 25 101 0
c98 0 100 0 97 -22z m-1774 -44 c12 -11 16 -36 16 -90 0 -72 -1 -74 -25 -74
-24 0 -25 3 -25 59 0 67 -15 90 -49 71 -18 -9 -21 -20 -21 -70 0 -57 -1 -60
-25 -60 -25 0 -25 1 -25 85 l0 86 35 -3 c19 -1 37 1 41 5 13 13 62 7 78 -9z
m256 -79 c0 -84 0 -85 -25 -85 -25 0 -25 1 -25 85 0 84 0 85 25 85 25 0 25 -1
25 -85z m780 -105 c0 -18 -7 -20 -75 -20 -41 0 -75 2 -75 4 0 29 16 36 81 36
62 0 69 -2 69 -20z"/>
<path d="M1849 3118 c0 -2 -3 -17 -5 -35 -4 -25 0 -35 23 -51 36 -25 174 -94
236 -117 26 -10 45 -20 43 -22 -6 -7 -187 72 -285 123 -46 24 -85 44 -87 44
-2 0 -4 -8 -4 -17 0 -13 -3 -15 -8 -5 -6 9 -37 -1 -123 -42 -185 -87 -523
-211 -634 -232 -27 -5 -33 -9 -23 -16 9 -7 7 -8 -10 -5 -12 3 -20 1 -17 -3 3
-5 1 -11 -5 -15 -5 -3 -10 1 -10 10 0 12 -5 15 -16 11 -9 -3 -20 -6 -25 -6
-15 0 -11 -492 6 -602 19 -125 51 -250 67 -263 7 -5 13 -27 14 -47 1 -53 118
-283 198 -388 127 -169 322 -338 503 -436 67 -36 74 -38 105 -27 30 11 31 11
14 -2 -11 -8 -23 -15 -28 -15 -4 0 -8 -20 -8 -45 0 -25 3 -45 7 -45 10 0 134
71 198 113 210 141 356 281 458 438 16 24 16 26 -7 48 l-23 22 -43 -58 c-84
-112 -260 -279 -355 -338 -42 -26 -21 -6 55 51 238 179 455 493 524 756 12 47
12 55 -2 71 -8 9 -18 17 -22 17 -4 0 -22 -46 -40 -102 -66 -200 -176 -381
-325 -533 -72 -74 -215 -189 -269 -217 -30 -15 -12 1 79 69 105 79 266 248
338 355 95 142 206 410 178 428 -10 5 -9 9 2 13 18 7 36 95 52 257 9 93 13
110 14 65 1 -55 -7 -137 -25 -273 l-7 -54 32 16 c17 9 31 18 31 19 0 1 7 52
15 112 21 154 21 605 1 605 -26 0 -197 42 -192 47 2 3 40 -3 83 -12 134 -28
131 -27 110 -11 -11 8 -14 15 -7 18 6 2 8 11 5 19 -4 11 -57 31 -153 59 -198
57 -310 100 -481 181 -141 68 -150 72 -152 67z m6 -158 c74 -42 81 -50 20 -25
-35 15 -37 15 -42 -4 -3 -12 -9 -19 -13 -16 -5 3 -15 2 -24 -1 -12 -5 -16 -20
-16 -63 0 -31 -5 -63 -10 -71 -7 -11 -10 -5 -10 23 0 26 -4 37 -15 37 -7 0
-18 7 -22 15 -5 8 -33 20 -63 26 -67 14 -78 15 -110 6 -14 -4 27 19 90 52 63
32 122 59 130 60 8 0 47 -18 85 -39z m365 -92 c10 -6 7 -7 -10 -2 -14 3 -32
11 -40 16 -10 6 -7 7 10 2 14 -3 32 -11 40 -16z m155 -48 c33 -11 44 -17 25
-13 -38 6 -111 31 -95 32 6 0 37 -8 70 -19z m-695 -14 c0 -11 -19 -15 -25 -6
-3 5 1 10 9 10 9 0 16 -2 16 -4z m-455 -44 c-6 -5 -29 -14 -52 -20 -47 -14
-62 -39 -105 -169 -18 -56 -28 -72 -45 -76 -28 -5 -43 5 -59 40 -27 62 -13
-320 18 -469 9 -44 18 -63 33 -69 18 -7 18 -8 1 -8 -10 -1 -16 -6 -14 -13 3
-7 13 -37 23 -65 12 -33 25 -53 34 -53 14 0 14 -2 1 -10 -12 -7 -5 -28 42
-123 59 -117 133 -229 222 -331 65 -76 220 -205 310 -259 77 -46 93 -44 113
14 12 34 12 34 12 -22 1 -31 4 -58 7 -62 4 -3 24 3 45 14 22 11 39 18 39 16 0
-8 -80 -57 -93 -57 -22 0 -244 151 -328 223 -188 163 -347 406 -430 660 -40
123 -57 272 -61 546 l-3 235 111 21 c61 12 124 27 140 33 37 13 51 15 39 4z
m550 -32 c4 -6 -9 -10 -32 -9 -38 1 -38 1 -8 9 17 4 31 8 32 9 1 0 5 -3 8 -9z
m792 -26 c-3 -3 -12 -4 -19 -1 -8 3 -5 6 6 6 11 1 17 -2 13 -5z m-685 -24
c138 -52 207 -172 208 -362 l0 -78 -39 0 -39 0 -4 51 c-1 27 1 60 5 72 14 35
-1 106 -31 154 -27 44 -107 94 -149 93 -11 -1 -5 -6 15 -15 60 -26 94 -57 118
-109 20 -43 24 -67 24 -152 l0 -102 100 -4 c151 -6 141 16 141 -323 -1 -199
-4 -282 -13 -292 -16 -19 -68 -45 -277 -137 l-174 -77 -219 97 c-141 63 -223
105 -230 118 -7 13 -11 120 -12 293 -1 271 -1 272 22 295 22 23 25 23 335 26
l312 3 -1 97 c0 114 -13 157 -57 200 -102 99 -264 75 -327 -49 -16 -30 -20
-59 -20 -139 l0 -100 -61 0 -62 0 5 109 c5 88 10 119 31 165 70 152 244 224
399 166z m705 -2 c-3 -8 -6 -5 -6 6 -1 11 2 17 5 13 3 -3 4 -12 1 -19z m-307
-428 c0 -21 -15 -27 -25 -10 -7 12 2 30 16 30 5 0 9 -9 9 -20z m-1167 -411
c14 -36 34 -84 46 -107 25 -48 28 -66 5 -34 -40 58 -125 304 -124 362 1 14 12
-15 24 -65 13 -49 35 -120 49 -156z m105 152 c-7 -2 -16 -8 -19 -12 -3 -5 -14
-3 -25 5 -14 11 -16 17 -7 27 6 6 9 18 6 27 -4 8 8 2 26 -14 21 -19 28 -30 19
-33z m1138 -3 c-8 -5 -27 -6 -40 -2 l-26 6 23 18 c20 17 23 17 40 2 15 -14 16
-17 3 -24z m140 6 c-4 -14 -9 -24 -12 -21 -3 2 -2 17 2 31 3 15 9 25 11 22 3
-3 2 -17 -1 -32z m-35 -106 c-12 -35 -26 -70 -32 -78 -9 -12 -10 -11 -4 5 27
83 50 143 53 140 2 -2 -5 -32 -17 -67z m-66 -157 c-21 -43 -29 -39 -8 4 9 19
18 33 21 31 2 -2 -4 -18 -13 -35z m-1190 -91 c9 -16 13 -30 11 -30 -3 0 -12
14 -21 30 -9 17 -13 30 -11 30 3 0 12 -13 21 -30z m54 -87 c25 -36 26 -41 6
-18 -26 30 -49 65 -42 65 2 0 18 -21 36 -47z m61 -78 c13 -14 21 -25 18 -25
-2 0 -15 11 -28 25 -13 14 -21 25 -18 25 2 0 15 -11 28 -25z m75 -85 c21 -22
37 -40 34 -40 -3 0 -23 18 -44 40 -21 22 -37 40 -34 40 3 0 23 -18 44 -40z
m131 -76 c-4 -16 -2 -32 6 -42 11 -13 10 -14 -7 -5 -11 6 -29 22 -40 35 l-20
23 24 -20 24 -20 -7 28 c-5 21 -3 27 10 27 12 0 15 -6 10 -26z m191 -76 c-3
-8 -6 -5 -6 6 -1 11 2 17 5 13 3 -3 4 -12 1 -19z m223 -183 c0 -2 -10 -9 -22
-15 -22 -11 -22 -10 -4 4 21 17 26 19 26 11z"/>
<path d="M1677 2603 c-4 -3 -16 -7 -27 -8 -32 -2 -78 -42 -102 -88 -19 -34
-22 -56 -21 -117 2 -41 7 -91 12 -110 7 -29 9 -18 10 61 1 118 29 185 95 227
22 14 43 27 45 29 2 2 2 5 -1 8 -2 3 -8 2 -11 -2z"/>
<path d="M1382 2168 c-16 -16 -15 -38 1 -38 9 0 8 -3 -2 -9 -14 -9 -7 -51 10
-51 5 0 8 -8 7 -17 -3 -37 2 -53 17 -53 8 0 15 -4 15 -10 0 -5 -7 -10 -15 -10
-9 0 -15 -9 -15 -23 0 -21 5 -24 45 -26 l45 -2 -1 96 c-1 80 -3 95 -17 95 -14
0 -13 2 2 13 16 12 16 14 2 26 -22 19 -79 24 -94 9z"/>
<path d="M1986 2164 c-10 -26 -7 -34 12 -35 14 0 13 -2 -4 -9 -19 -8 -21 -16
-21 -97 0 -54 4 -91 11 -95 8 -6 7 -8 -1 -8 -8 0 -13 -13 -13 -30 0 -17 5 -30
13 -30 9 0 9 -2 -1 -9 -8 -5 -13 -22 -11 -42 2 -23 -1 -33 -9 -31 -7 1 -12 -4
-12 -10 0 -7 -3 -23 -6 -35 -5 -18 -2 -23 12 -23 14 0 15 -3 6 -8 -23 -15 -23
-52 1 -62 l22 -9 -22 0 c-15 -1 -28 -12 -39 -33 -9 -18 -28 -43 -42 -56 -13
-13 -22 -25 -20 -28 3 -2 26 2 51 10 41 12 47 12 47 -1 0 -21 31 -12 146 42
106 49 115 61 113 153 -2 83 -11 115 -36 128 -13 6 -21 13 -18 16 3 3 1 17 -4
32 -8 20 -18 26 -43 27 l-33 2 35 6 c30 5 35 9 31 31 -1 14 -8 28 -15 32 -7 5
-5 8 7 8 19 0 25 44 7 55 -6 4 -4 12 5 21 20 21 19 41 -2 47 -17 4 -17 5 0 6
11 1 17 9 17 26 0 25 -1 25 -89 25 -72 0 -90 -3 -95 -16z"/>
<path d="M1502 2095 c0 -16 2 -22 5 -12 2 9 2 23 0 30 -3 6 -5 -1 -5 -18z"/>
<path d="M1699 2031 c-38 -39 -39 -87 -3 -131 l27 -31 -22 -78 c-11 -43 -21
-83 -21 -90 0 -17 19 -13 53 11 l30 22 15 -22 c10 -15 25 -22 48 -22 19 0 34
2 34 5 0 3 -10 44 -21 90 l-21 84 26 31 c56 68 14 160 -74 160 -33 0 -48 -6
-71 -29z"/>
<path d="M1500 2025 c0 -14 5 -25 10 -25 6 0 10 11 10 25 0 14 -4 25 -10 25
-5 0 -10 -11 -10 -25z"/>
<path d="M1500 1961 c0 -24 4 -31 19 -31 16 0 18 5 12 27 -10 39 -31 41 -31 4z"/>
<path d="M1415 1913 c-42 -11 -48 -52 -7 -54 l27 -1 -30 -7 c-25 -5 -30 -11
-31 -37 0 -16 -3 -34 -6 -39 -3 -6 -4 -44 -2 -85 l3 -75 108 -37 c59 -20 113
-35 118 -33 6 2 0 7 -12 10 -18 6 -23 15 -23 41 0 32 -2 34 -37 35 -33 1 -34
2 -13 8 17 5 26 15 28 33 3 22 -1 27 -25 31 -26 4 -26 4 6 6 26 1 32 4 27 17
-3 9 -6 24 -6 34 0 13 -9 20 -27 23 -26 4 -26 4 5 6 29 1 32 4 32 31 0 27 -3
30 -32 31 -31 2 -31 2 -5 6 21 3 27 10 27 29 0 27 -28 44 -40 24 -5 -8 -9 -9
-14 -1 -7 11 -35 13 -71 4z m25 -207 c0 -11 -19 -15 -25 -6 -3 5 1 10 9 10 9
0 16 -2 16 -4z"/>
<path d="M1952 1820 c0 -19 2 -27 5 -17 2 9 2 25 0 35 -3 9 -5 1 -5 -18z"/>
<path d="M1343 2963 c-85 -34 -113 -50 -113 -64 0 -24 -19 -34 -26 -15 -9 24
-33 19 -46 -9 -9 -19 -9 -28 0 -37 14 -14 165 31 285 85 60 26 65 31 50 43
-17 12 -17 14 2 28 42 32 -38 16 -152 -31z"/>
<path d="M2670 2563 c0 -59 -3 -159 -7 -222 -5 -86 -3 -112 5 -107 7 4 12 3
12 -3 0 -5 -5 -11 -11 -13 -6 -2 -14 -34 -18 -70 -6 -63 -6 -67 16 -77 12 -6
24 -7 27 -3 14 23 26 190 26 365 l-1 202 -24 18 -25 18 0 -108z"/>
<path d="M2565 1808 c-15 -40 -46 -109 -69 -153 -22 -44 -42 -83 -44 -87 -2
-5 5 -8 15 -8 11 0 24 -5 30 -11 13 -13 38 25 82 124 50 112 91 261 51 186
l-12 -22 -12 22 c-12 21 -14 17 -41 -51z"/>
<path d="M1506 1083 c-11 -11 -6 -25 7 -20 6 2 27 -4 45 -15 17 -11 32 -18 32
-15 0 9 -78 56 -84 50z"/>
<path d="M771 539 c-16 -46 -14 -49 20 -49 24 0 30 3 25 16 -3 9 -9 27 -12 40
-8 33 -20 30 -33 -7z"/>
<path d="M2220 565 c0 -22 4 -25 34 -25 39 0 62 20 44 38 -7 7 -27 12 -45 12
-29 0 -33 -3 -33 -25z"/>
<path d="M2220 470 c0 -28 2 -30 39 -30 46 0 70 22 51 45 -7 9 -29 15 -51 15
-37 0 -39 -2 -39 -30z"/>
<path d="M2487 570 c-36 -28 -38 -91 -5 -114 51 -36 118 -5 118 53 0 63 -66
98 -113 61z"/>
</g>
</svg>
